<svg width="2823" height="2912" viewBox="0 0 2823 2912" fill="none" xmlns="http://www.w3.org/2000/svg">
<path d="M705.75 2342.85L702.82 2376.85C702.208 2383.91 704.14 2390.97 708.267 2396.73C712.394 2402.5 718.445 2406.6 725.33 2408.3L783.86 2422.78C791.059 2424.56 798.662 2423.59 805.182 2420.06C811.703 2416.52 816.673 2410.69 819.12 2403.69L826.52 2382.45" fill="white"/>
<path d="M791.16 2437.49C787.58 2437.49 784.014 2437.05 780.54 2436.18L722 2421.71C711.889 2419.25 702.997 2413.25 696.94 2404.79C690.884 2396.33 688.066 2385.97 689 2375.61L691.93 2341.61C692.246 2337.95 694.003 2334.56 696.816 2332.19C699.629 2329.83 703.267 2328.67 706.93 2328.99C710.593 2329.31 713.98 2331.06 716.347 2333.88C718.713 2336.69 719.866 2340.33 719.55 2343.99L716.62 2377.94C716.279 2381.71 717.302 2385.49 719.504 2388.57C721.705 2391.65 724.94 2393.85 728.62 2394.75L787.15 2409.22C790.997 2410.19 795.066 2409.67 798.554 2407.79C802.042 2405.9 804.695 2402.77 805.99 2399.02L813.4 2377.79C813.979 2376.05 814.9 2374.43 816.107 2373.05C817.315 2371.66 818.786 2370.53 820.435 2369.72C822.084 2368.91 823.877 2368.44 825.712 2368.32C827.546 2368.21 829.384 2368.47 831.119 2369.07C832.854 2369.68 834.451 2370.62 835.818 2371.85C837.185 2373.08 838.294 2374.57 839.08 2376.23C839.867 2377.89 840.315 2379.69 840.399 2381.52C840.483 2383.36 840.201 2385.19 839.57 2386.92L832.16 2408.15C829.231 2416.7 823.706 2424.12 816.356 2429.38C809.006 2434.64 800.198 2437.48 791.16 2437.49Z" fill="#371B45"/>
<path d="M2799.27 2602.2C2796.96 2605.06 2794.02 2607.34 2790.67 2608.87C2787.33 2610.4 2783.67 2611.13 2780 2611C2683.64 2609.57 2528.46 2615.22 2385.87 2655.78C2079.5 2743 1860.27 2530.56 1960 2283.62C1990.19 2208.82 2037.65 2153.62 2094.45 2121.5C2221.45 2049.37 2394.95 2092.3 2525.31 2287.96C2618.05 2427.11 2723.9 2516.51 2794.53 2566.15C2807.61 2575.3 2807.67 2592 2799.27 2602.2Z" fill="#FF8138"/>
<path d="M2248.31 2692.85C2143.2 2692.85 2051.11 2656.35 1988.66 2586.85C1914.38 2504.21 1898.2 2391.36 1944.25 2277.24C1992.12 2158.65 2081.98 2084.24 2190.78 2073.1C2316.78 2060.2 2443.78 2135.1 2539.4 2278.57C2630.12 2414.73 2733.51 2502.57 2804.27 2552.25C2811.64 2557.29 2817.17 2564.6 2819.99 2573.08C2822.82 2581.55 2822.8 2590.71 2819.93 2599.17C2814.18 2616.93 2798.5 2628.29 2779.74 2627.94C2678.35 2626.45 2528.51 2632.86 2390.53 2672.1C2341.59 2686 2293.73 2692.85 2248.31 2692.85ZM2218.68 2105.57C2210.51 2105.57 2202.35 2105.98 2194.23 2106.82C2098.35 2116.64 2018.68 2183.38 1975.68 2289.94C1934.68 2391.59 1948.57 2491.56 2013.87 2564.21C2094.46 2653.88 2231.8 2682.02 2381.26 2639.52C2523.2 2599.15 2676.57 2592.52 2780.26 2594.07C2781.92 2594.14 2783.56 2593.66 2784.92 2592.69C2786.27 2591.72 2787.26 2590.32 2787.72 2588.72C2788.31 2587.15 2788.35 2585.43 2787.82 2583.84C2787.29 2582.25 2786.23 2580.89 2784.81 2579.99C2711.68 2528.63 2604.81 2437.91 2511.21 2297.37C2429.16 2174.25 2323.76 2105.57 2218.68 2105.57Z" fill="#090069"/>
<path d="M2067.87 2323.89C2115.31 2198.07 2262.35 2176.23 2367.22 2320.19C2402.86 2369.14 2446.06 2412.11 2495.22 2447.46C2511.22 2458.89 2502.5 2483.85 2482.31 2484.46C2431.81 2486.08 2363.31 2492.26 2299.93 2511.24C2139.27 2559.43 2019.47 2452.24 2067.87 2323.89Z" fill="#FFF647"/>
<path d="M2100.23 2339.48C2123.16 2278.66 2194.23 2268.1 2244.94 2337.69C2262.16 2361.36 2283.05 2382.13 2306.81 2399.22C2314.53 2404.74 2310.33 2416.81 2300.57 2417.12C2276.16 2417.9 2243.02 2420.89 2212.41 2430.12C2134.74 2453.34 2076.83 2401.53 2100.23 2339.48Z" fill="white"/>
<path d="M2063.92 2219L2023.59 2354.76L1995.43 2449.48C1986.7 2478.82 1967.37 2503.86 1941.19 2519.72C1915.02 2535.59 1883.88 2541.15 1853.83 2535.32L1795.19 2523.94L1736.94 2512.64L1814.27 2285.23L1897.27 2041.33L1940.71 2054.03L1980.38 2065.6C1995.96 2070.16 2010.48 2077.74 2023.12 2087.93C2035.75 2098.11 2046.25 2110.69 2054.02 2124.95C2061.78 2139.2 2066.65 2154.85 2068.35 2170.99C2070.05 2187.13 2068.54 2203.44 2063.92 2219Z" fill="white"/>
<path d="M1877.69 2553.86C1868.63 2553.86 1859.59 2552.98 1850.69 2551.25L1733.8 2528.58C1731.52 2528.14 1729.36 2527.21 1727.46 2525.86C1725.57 2524.51 1723.98 2522.78 1722.82 2520.76C1721.65 2518.75 1720.93 2516.51 1720.7 2514.2C1720.47 2511.89 1720.74 2509.55 1721.49 2507.35L1881.83 2036C1883.18 2032.03 1886.02 2028.73 1889.75 2026.79C1893.47 2024.86 1897.8 2024.44 1901.83 2025.62L1984.95 2049.92C2002.58 2055.08 2019.02 2063.67 2033.33 2075.2C2047.63 2086.72 2059.52 2100.97 2068.31 2117.1C2077.09 2133.23 2082.61 2150.95 2084.53 2169.22C2086.46 2187.49 2084.75 2205.96 2079.52 2223.57L2011 2454.05C2002.54 2482.85 1984.98 2508.14 1960.95 2526.13C1936.92 2544.12 1907.71 2553.85 1877.69 2553.86ZM1758.36 2500.17L1856.92 2519.29C1883.01 2524.44 1910.08 2519.65 1932.81 2505.86C1955.55 2492.07 1972.31 2470.28 1979.8 2444.77L2048.3 2214.33C2052.31 2200.83 2053.61 2186.67 2052.13 2172.67C2050.65 2158.66 2046.42 2145.09 2039.69 2132.72C2032.95 2120.35 2023.84 2109.43 2012.88 2100.6C2001.92 2091.76 1989.31 2085.17 1975.8 2081.21L1907.64 2061.28L1758.36 2500.17Z" fill="#090069"/>
<path d="M2205.26 1892.2C2165.51 1889.6 2121.74 1891.63 2081.15 1904.08C1972.42 1937.38 1892.5 2055.22 1892.5 2055.22L1671.63 1866.78C1671.63 1866.78 1719.21 1827.16 1801.35 1799.78C1899.02 1767.24 2045.59 1752.06 2219.11 1841.46C2222.78 1843.23 2225.99 1845.84 2228.47 1849.08C2230.95 1852.32 2232.63 1856.09 2233.38 1860.1C2236.22 1875.81 2225 1893.48 2205.26 1892.2Z" fill="#FF4747"/>
<g opacity="0.6">
<path d="M2233.78 1864.4C2038.57 1797.61 1868.84 1808.26 1750.26 1834.33C1732.36 1838.24 1715.64 1842.54 1700.15 1846.97C1731.93 1827.36 1765.9 1811.54 1801.35 1799.82C1899.02 1767.28 2045.59 1752.1 2219.11 1841.5C2222.78 1843.27 2225.99 1845.88 2228.47 1849.12C2230.95 1852.36 2232.63 1856.13 2233.38 1860.14C2233.65 1861.54 2233.79 1862.97 2233.78 1864.4Z" fill="white"/>
</g>
<g opacity="0.2">
<path d="M2205.23 1892.2C2165.48 1889.6 2121.72 1891.64 2081.12 1904.08C1972.39 1937.38 1892.47 2055.22 1892.47 2055.22L1671.6 1866.79C1671.6 1866.79 1719.19 1827.16 1801.32 1799.79C1823.25 1807.79 1843.39 1820.02 1860.61 1835.79C1893.69 1865.91 1938.7 1879.56 1982.31 1869.61C2011.31 1863 2046.48 1857.49 2084.31 1857.11C2151.04 1856.48 2200.23 1864.74 2233.38 1860.11C2236.19 1875.82 2224.94 1893.49 2205.23 1892.2Z" fill="#090069"/>
</g>
<path d="M1917.87 2875.4C1913.97 2887.4 1902.37 2897 1886.8 2894.49C1517.54 2835.49 1443.36 2535.71 1443.36 2535.71L1744.76 2513.92C1744.76 2513.92 1742.6 2570.92 1757.76 2636.84C1767.11 2677.19 1782.9 2720.92 1809.67 2756.96C1836.07 2792.43 1871.48 2821.1 1906.42 2843.48C1918.57 2851.28 1921.47 2864.36 1917.87 2875.4Z" fill="#FF4747"/>
<g opacity="0.2">
<path d="M1917.87 2875.4C1913.97 2887.4 1902.37 2897 1886.8 2894.49C1517.54 2835.49 1443.36 2535.71 1443.36 2535.71L1744.76 2513.92C1744.76 2513.92 1742.6 2570.92 1757.76 2636.84C1748.2 2641.48 1738.35 2645.49 1728.27 2648.84C1691.57 2661.1 1676.91 2705.18 1699.11 2736.84C1732.28 2784.28 1796.2 2842.52 1917.87 2875.4Z" fill="#090069"/>
</g>
<path d="M1892.51 2071.49C1888.64 2071.49 1884.89 2070.11 1881.94 2067.6L1661 1879.15C1659.2 1877.61 1657.75 1875.7 1656.77 1873.54C1655.78 1871.38 1655.28 1869.04 1655.29 1866.67C1655.3 1864.29 1655.84 1861.95 1656.85 1859.81C1657.86 1857.67 1659.33 1855.77 1661.15 1854.25C1663.59 1852.25 1722.02 1804.25 1821.21 1776.73C1912.48 1751.42 2056.88 1739.6 2226.56 1827.03C2245.25 1836.66 2254.03 1856.74 2248.42 1877.03C2242.81 1897.32 2225.03 1909.79 2204.17 1908.46C2159.45 1905.54 2119.65 1909.33 2085.88 1919.68C1984.06 1950.87 1906.72 2063.26 1905.95 2064.39C1904.66 2066.28 1902.99 2067.89 1901.05 2069.09C1899.1 2070.3 1896.92 2071.08 1894.65 2071.39C1893.94 2071.47 1893.23 2071.5 1892.51 2071.49ZM1697.92 1867.82L1889.74 2031.45C1915.61 1997.8 1985.74 1916.29 2076.37 1888.51C2113.93 1877 2157.64 1872.78 2206.31 1875.94C2213.93 1876.45 2216.39 1870.76 2217.07 1868.3C2217.61 1866.3 2218.82 1859.66 2211.68 1855.98C1952.27 1722.31 1753.89 1830.47 1697.92 1867.82Z" fill="#090069"/>
<path d="M1891.71 2911.86C1889.16 2911.86 1886.62 2911.65 1884.1 2911.25C1688 2879.91 1574.18 2781 1513.27 2703.46C1447.08 2619.24 1427.69 2542.99 1426.9 2539.78C1426.3 2537.38 1426.23 2534.88 1426.7 2532.46C1427.17 2530.03 1428.16 2527.73 1429.61 2525.73C1431.06 2523.73 1432.94 2522.07 1435.1 2520.87C1437.26 2519.67 1439.65 2518.96 1442.12 2518.78L1743.52 2497.02C1745.9 2496.85 1748.28 2497.18 1750.52 2497.99C1752.76 2498.81 1754.8 2500.08 1756.52 2501.74C1758.23 2503.39 1759.57 2505.39 1760.46 2507.6C1761.35 2509.82 1761.76 2512.19 1761.67 2514.57C1761.62 2515.98 1757.16 2657.89 1823.28 2746.82C1845.21 2776.33 1876.28 2804.03 1915.53 2829.17C1933.87 2840.9 1940.98 2862.46 1933.24 2882.81C1926.38 2900.85 1910.23 2911.86 1891.71 2911.86ZM1466 2551.06C1475.71 2577.99 1497.92 2629.47 1540.86 2683.75C1623.97 2788.83 1741.25 2854.11 1889.42 2877.75C1897.69 2879.07 1900.78 2872.75 1901.54 2870.75C1902.48 2868.26 1903.96 2862.02 1897.23 2857.75C1854.49 2830.4 1820.44 2799.89 1796.05 2767.08C1737.18 2687.89 1728.68 2576.34 1727.74 2532.17L1466 2551.06Z" fill="#090069"/>
<path d="M1935.22 2117L1874.4 2305.17L1817.4 2481.5C1812.48 2496.81 1804.95 2511.16 1795.15 2523.92C1792.42 2527.51 1789.46 2531 1786.38 2534.34C1762.35 2560.16 1729.53 2576.06 1694.38 2578.91C1469.05 2597.09 886.44 2605.08 424.6 2272.77C424.583 2272.78 424.564 2272.78 424.545 2272.78C424.526 2272.78 424.507 2272.78 424.49 2272.77C277.68 2167 143.07 2026.91 36.0501 1841.75C-9.57994 1762.75 27.9301 1662.01 113.75 1631.33C230.11 1589.75 405.64 1540.07 614.25 1522.73C986.41 1491.82 1463.63 1564.09 1897.35 1970.25C1916.9 1988.62 1930.84 2012.16 1937.55 2038.14C1944.25 2064.12 1943.44 2091.46 1935.22 2117Z" fill="white"/>
<path d="M424.64 2272.74C424.623 2272.75 424.604 2272.75 424.585 2272.75C424.566 2272.75 424.547 2272.75 424.53 2272.74C277.68 2167 143.07 2026.91 36.0501 1841.75C-9.57994 1762.75 27.9301 1662.01 113.75 1631.33C230.11 1589.75 405.64 1540.07 614.25 1522.73C614.25 1522.73 333.94 1910.44 424.64 2272.74Z" fill="#FF4747"/>
<g opacity="0.4">
<path d="M614.25 1522.73C614.25 1522.73 597.46 1545.98 573.39 1586.4C369.47 1604.51 197.93 1653.2 83.5499 1694.06C58.5983 1702.91 36.5263 1718.39 19.7 1738.83C24.8514 1714.36 36.2006 1691.63 52.6601 1672.8C69.1196 1653.98 90.1376 1639.7 113.7 1631.33C230.11 1589.75 405.64 1540.07 614.25 1522.73Z" fill="white"/>
</g>
<g opacity="0.2">
<path d="M2023.59 2354.71L1995.43 2449.43C1986.7 2478.77 1967.37 2503.81 1941.19 2519.67C1915.02 2535.54 1883.88 2541.1 1853.83 2535.27L1795.19 2523.89C1792.46 2527.48 1789.5 2530.97 1786.42 2534.31C1770.14 2529.22 1754.08 2523.45 1738.62 2516.91C1728.8 2524.61 1716.76 2530.17 1701.47 2533.04C1472.47 2575.64 507.16 2564.2 40.9999 1821.69C17.7799 1784.69 17.2599 1741.9 32.4399 1705.84C135.86 1846.31 256.24 1958.78 385.21 2048.84H385.32C449.743 2093.67 517.243 2133.91 587.32 2169.25C608.64 2180.03 632.04 2159.43 624.06 2136.91C616.724 2116.09 612.099 2094.42 610.3 2072.42C598.3 1927.79 708.67 1801.26 854.92 1794.86C988.39 1788.98 1105.57 1888.86 1120.92 2021.57C1125.62 2061.53 1120.84 2102.04 1106.95 2139.81C1093.07 2177.58 1070.47 2211.54 1041 2238.94C1007.07 2270.61 1024.65 2318.04 1066.92 2337.16C1192.47 2393.93 1360.18 2417.39 1502.13 2426.36C1555.81 2429.75 1600.42 2383.8 1593.89 2330.36C1585.47 2261.57 1611.46 2217.76 1611.46 2217.76L1814.31 2285.13L1874.44 2305.13L2023.59 2354.71Z" fill="#090069"/>
</g>
<path d="M1041.52 2160.61C1141.73 2060.39 1141.73 1897.92 1041.52 1797.7C941.308 1697.49 778.831 1697.49 678.619 1797.7C578.406 1897.92 578.406 2060.39 678.619 2160.61C778.831 2260.82 941.308 2260.82 1041.52 2160.61Z" fill="#39A1FF"/>
<g opacity="0.2">
<path d="M1115.78 1958C1127.49 2099.24 1022.53 2223.23 881.29 2234.94C740.05 2246.65 616.05 2141.64 604.29 2000.39C601.06 1961.85 606.6 1923.07 620.495 1886.97C634.39 1850.87 656.279 1818.39 684.52 1791.96C647.02 1837.74 626.52 1898.57 631.9 1963.53C642.61 2092.69 751.68 2189.03 875.42 2178.77C999.16 2168.51 1090.89 2055.53 1080.18 1926.37C1074.5 1857.85 1041.18 1798.57 992.69 1759.53C1027.46 1780.49 1056.76 1809.42 1078.16 1843.93C1099.56 1878.43 1112.46 1917.53 1115.78 1958Z" fill="#090069"/>
</g>
<path d="M1513.84 2602.23C1231.21 2602.23 785.67 2552.23 415.84 2286.45C415.57 2286.28 415.3 2286.1 415.04 2285.91C254.76 2170.53 122.52 2023.84 22.0401 1849.91C10.168 1829.3 2.97105 1806.33 0.958517 1782.63C-1.05402 1758.94 2.16709 1735.08 10.3939 1712.77C18.6207 1690.45 31.652 1670.22 48.5656 1653.49C65.4792 1636.77 85.8616 1623.97 108.27 1616C220.63 1575.84 399.39 1524.26 612.9 1506.5C830.22 1488.5 1040.31 1508.8 1237.32 1566.97C1482.72 1639.43 1708.52 1771.11 1908.47 1958.36C1930.24 1978.87 1945.76 2005.12 1953.23 2034.08C1960.71 2063.04 1959.83 2093.52 1950.71 2122L1832.94 2486.5C1823.42 2516.17 1805.29 2542.34 1780.86 2561.68C1756.43 2581.02 1726.8 2592.66 1695.74 2595.13C1648.64 2598.91 1586.63 2602.23 1513.84 2602.23ZM433.35 2259C433.62 2259.18 433.89 2259.36 434.15 2259.55C890.61 2587.99 1466.64 2580.95 1693.15 2562.67C1717.8 2560.72 1741.31 2551.48 1760.69 2536.12C1780.07 2520.77 1794.45 2500.01 1802 2476.46L1919.73 2112C1926.96 2089.4 1927.65 2065.21 1921.72 2042.24C1915.79 2019.26 1903.48 1998.43 1886.21 1982.16C1529.1 1647.7 1101.59 1498.6 615.6 1539C405.6 1556.46 229.76 1607.21 119.23 1646.71C101.303 1653.07 84.9928 1663.29 71.4552 1676.65C57.9176 1690.01 47.4837 1706.19 40.8924 1724.03C34.3011 1741.87 31.7137 1760.95 33.3136 1779.9C34.9134 1798.85 40.6613 1817.22 50.1501 1833.71C148.22 2003.28 277.14 2146.39 433.35 2259Z" fill="#090069"/>
<path d="M424.66 2289C421.198 2288.98 417.826 2287.89 415.01 2285.88C254.73 2170.5 122.49 2023.81 22.0099 1849.88C10.144 1829.27 2.95273 1806.3 0.945066 1782.61C-1.06259 1758.91 2.16241 1735.06 10.3918 1712.75C18.6213 1690.44 31.654 1670.2 48.5678 1653.49C65.4816 1636.77 85.8631 1623.97 108.27 1616C220.63 1575.84 399.39 1524.26 612.9 1506.5C616.003 1506.24 619.114 1506.88 621.865 1508.34C624.616 1509.8 626.892 1512.01 628.422 1514.72C629.953 1517.43 630.674 1520.53 630.499 1523.63C630.325 1526.74 629.263 1529.74 627.44 1532.26C624.69 1536.08 352.66 1918.2 440.44 2268.79C441.027 2271.13 441.089 2273.56 440.62 2275.93C440.151 2278.29 439.163 2280.52 437.728 2282.45C436.293 2284.39 434.446 2285.98 432.321 2287.11C430.196 2288.25 427.846 2288.89 425.44 2289.01L424.66 2289ZM581.59 1542.06C386.64 1561.88 223.74 1609.29 119.23 1646.63C101.303 1652.99 84.9927 1663.21 71.4551 1676.57C57.9175 1689.93 47.4835 1706.11 40.8923 1723.95C34.301 1741.79 31.7136 1760.87 33.3134 1779.82C34.9132 1798.77 40.6612 1817.14 50.15 1833.63C141.15 1991.01 258.63 2125.55 399.84 2234.07C369.06 2056.33 419.9 1877.91 470.38 1755.67C511 1657.42 556.37 1581.22 581.59 1542.09V1542.06Z" fill="#090069"/>
<path d="M859.87 2252.06C719.51 2252.06 599.87 2144.06 588.11 2001.7C575.68 1851.7 687.57 1719.63 837.53 1707.2C909.654 1701.23 981.195 1724.15 1036.42 1770.93C1091.64 1817.7 1126.02 1884.5 1132 1956.62C1144.43 2106.62 1032.54 2238.69 882.58 2251.12C875 2251.75 867.39 2252.06 859.87 2252.06ZM860.47 1738.81C853.737 1738.81 846.987 1739.09 840.22 1739.65C708.15 1750.6 609.61 1867 620.56 1999C631.51 2131 747.84 2229.59 879.92 2218.66C941.7 2213.54 999.113 2184.76 1040.17 2138.31C1081.22 2091.86 1102.74 2031.35 1100.23 1969.41C1097.72 1907.47 1071.37 1848.89 1026.69 1805.92C982.016 1762.95 922.461 1738.9 860.47 1738.8V1738.81Z" fill="#090069"/>
<path d="M860.07 2140.24C949.032 2140.24 1021.15 2068.12 1021.15 1979.16C1021.15 1890.2 949.032 1818.08 860.07 1818.08C771.108 1818.08 698.99 1890.2 698.99 1979.16C698.99 2068.12 771.108 2140.24 860.07 2140.24Z" fill="#65DCFC"/>
<g opacity="0.2">
<path d="M1003.77 2052C1003.91 2046.19 1003.74 2040.38 1003.26 2034.59C1000.39 1999.62 986.186 1966.54 962.796 1940.38C939.406 1914.22 908.114 1896.41 873.678 1889.67C839.241 1882.92 803.544 1887.61 772.015 1903.01C740.485 1918.41 714.847 1943.69 699 1975C699.647 1950.86 705.713 1927.17 716.749 1905.7C727.786 1884.22 743.511 1865.49 762.76 1850.91C782.01 1836.33 804.292 1826.26 827.957 1821.46C851.623 1816.65 876.066 1817.23 899.479 1823.14C922.892 1829.06 944.676 1840.16 963.218 1855.63C981.76 1871.1 996.587 1890.54 1006.6 1912.52C1016.61 1934.49 1021.56 1958.44 1021.07 1982.58C1020.58 2006.73 1014.67 2030.45 1003.77 2052Z" fill="#090069"/>
</g>
<path d="M859.94 2156.53C768.71 2156.53 690.94 2086.32 683.31 1993.81C675.24 1896.35 747.95 1810.48 845.42 1802.4C868.632 1800.48 891.995 1803.14 914.176 1810.25C936.358 1817.35 956.922 1828.76 974.696 1843.81C992.469 1858.86 1007.1 1877.27 1017.76 1897.98C1028.42 1918.69 1034.9 1941.29 1036.82 1964.5C1038.75 1987.72 1036.08 2011.08 1028.98 2033.26C1021.87 2055.44 1010.47 2076.01 995.414 2093.78C980.361 2111.55 961.955 2126.19 941.246 2136.85C920.537 2147.51 897.932 2153.99 874.72 2155.91C869.77 2156.32 864.83 2156.53 859.94 2156.53ZM860.18 1834.35C856.18 1834.35 852.157 1834.52 848.11 1834.85C768.54 1841.45 709.17 1911.55 715.76 1991.12C722.35 2070.69 792.45 2130 872 2123.46C951.55 2116.92 1010.94 2046.77 1004.34 1967.2C998.11 1891.68 934.65 1834.35 860.18 1834.35Z" fill="#090069"/>
<path d="M1662 2178.06C1766.83 2167.06 1941.8 2182.41 2101 2353.67C2117.92 2371.87 2106.35 2401.67 2081.59 2403.85C1983.21 2412.34 1776.46 2410.54 1630.43 2273.38C1596 2241 1615 2183 1662 2178.06Z" fill="#FF4747"/>
<g opacity="0.6">
<path d="M2081.67 2403.85C2077.95 2404.16 2074.07 2404.48 2069.96 2404.77C2072.3 2399.46 2073.02 2393.58 2072.04 2387.87C2071.06 2382.15 2068.42 2376.85 2064.44 2372.63C1905.52 2201.69 1730.85 2186.11 1625.94 2197.01C1635 2186.18 1647.96 2179.36 1662.02 2178.01C1766.83 2167.01 1941.8 2182.35 2101.08 2353.64C2117.94 2371.88 2106.38 2401.75 2081.67 2403.85Z" fill="white"/>
</g>
<g opacity="0.2">
<path d="M2108.92 2372C2109.92 2387.22 2099 2402.39 2081.67 2403.88C1983.27 2412.36 1776.49 2410.56 1630.5 2273.4C1596.06 2241.05 1615 2183 1662 2178C1675.05 2176.65 1689.18 2175.7 1704.18 2175.39C1628 2180.72 1628.41 2226.99 1675.35 2250.24C1836.75 2330.19 1993.4 2356.06 2108.92 2372Z" fill="#090069"/>
</g>
<path d="M2013.27 2423.74C1899.14 2423.74 1739.91 2399.4 1618.88 2285.74C1608.67 2276.28 1601.42 2264.05 1598.03 2250.54C1594.64 2237.04 1595.24 2222.84 1599.77 2209.67C1604.07 2196.6 1612.08 2185.07 1622.82 2176.47C1633.55 2167.87 1646.56 2162.57 1660.25 2161.22C1757.25 2151.07 1945.12 2161.08 2113.46 2342.14C2119.42 2348.58 2123.44 2356.57 2125.09 2365.19C2126.74 2373.81 2125.93 2382.71 2122.77 2390.9C2119.61 2399.09 2114.22 2406.22 2107.2 2411.49C2100.19 2416.77 2091.84 2419.97 2083.1 2420.74C2062.8 2422.49 2039.2 2423.74 2013.27 2423.74ZM1663.78 2194.91C1656.54 2195.57 1649.66 2198.34 1643.98 2202.89C1638.31 2207.44 1634.11 2213.56 1631.89 2220.48C1629.41 2227.49 1629.06 2235.08 1630.87 2242.29C1632.68 2249.51 1636.58 2256.02 1642.08 2261.03C1781 2391.51 1976.2 2396 2080.19 2387C2082.61 2386.79 2084.93 2385.91 2086.88 2384.45C2088.83 2382.99 2090.33 2381.02 2091.21 2378.75C2092.09 2376.48 2092.31 2374.01 2091.86 2371.62C2091.41 2369.23 2090.29 2367.02 2088.64 2365.23C1938.26 2203.46 1774.6 2183.32 1663.78 2194.91Z" fill="#090069"/>
<path d="M797.921 2050.45C818.308 2048.76 832.906 2024.13 830.526 1995.43C828.147 1966.74 809.692 1944.85 789.305 1946.54C768.919 1948.23 754.321 1972.86 756.7 2001.56C759.079 2030.25 777.534 2052.14 797.921 2050.45Z" fill="white"/>
<path d="M1436.27 793L876 856.21C861.692 857.823 848.57 864.935 839.408 876.043C830.246 887.151 825.761 901.386 826.9 915.74L868.17 1435.74C869.276 1449.63 875.565 1462.61 885.788 1472.08C896.011 1481.56 909.422 1486.84 923.36 1486.89L1637.36 1489.28C1653.23 1479.21 1665.82 1464.73 1673.57 1447.61C1681.33 1430.49 1683.92 1411.48 1681.03 1392.91L1618.31 990.22" fill="white"/>
<path d="M1637.36 1503.24L923.36 1500.85C905.945 1500.69 889.214 1494.04 876.437 1482.21C863.659 1470.37 855.752 1454.2 854.26 1436.85L812.99 916.85C811.491 898.858 817.082 880.991 828.569 867.062C840.056 853.133 856.531 844.244 874.48 842.29L1434.75 779.1C1436.58 778.894 1438.43 779.05 1440.19 779.558C1441.96 780.067 1443.61 780.919 1445.05 782.065C1446.49 783.212 1447.69 784.63 1448.58 786.24C1449.46 787.849 1450.03 789.618 1450.24 791.445C1450.44 793.272 1450.29 795.122 1449.78 796.89C1449.27 798.657 1448.42 800.306 1447.27 801.744C1446.12 803.182 1444.7 804.38 1443.1 805.27C1441.49 806.16 1439.72 806.724 1437.89 806.93L877.62 870.13C866.906 871.295 857.072 876.6 850.214 884.913C843.356 893.227 840.018 903.89 840.91 914.63L882.18 1434.63C883.059 1445 887.779 1454.67 895.414 1461.75C903.049 1468.82 913.051 1472.79 923.46 1472.88L1633.19 1475.26C1645.78 1466.4 1655.65 1454.19 1661.66 1440.02C1667.68 1425.85 1669.61 1410.27 1667.24 1395.06L1604.53 992.37C1604.25 990.553 1604.32 988.698 1604.76 986.912C1605.19 985.125 1605.97 983.441 1607.06 981.956C1608.14 980.471 1609.51 979.215 1611.08 978.258C1612.65 977.301 1614.39 976.663 1616.21 976.38C1618.03 976.097 1619.88 976.175 1621.67 976.608C1623.46 977.042 1625.14 977.824 1626.62 978.908C1628.11 979.993 1629.37 981.359 1630.32 982.93C1631.28 984.5 1631.92 986.243 1632.2 988.06L1694.92 1390.75C1698.24 1412.01 1695.27 1433.78 1686.39 1453.39C1677.51 1472.99 1663.09 1489.57 1644.92 1501.1C1642.66 1502.52 1640.03 1503.27 1637.36 1503.24Z" fill="#371B45"/>
<path d="M447.23 1163.13C441.19 1166.32 435.857 1170.69 431.55 1175.99C422.69 1187.07 418.02 1205.08 443.69 1228.93C454.768 1239.11 466.985 1247.98 480.1 1255.35C514.29 1274.9 553.01 1285.12 592.4 1286.95C655.12 1289.8 784.11 1289.88 881.87 1251.68C891.33 1248.01 900.43 1244 909.19 1239.57C909.19 1239.57 897.1 1353.77 912.81 1495.24C928.52 1636.71 860.15 1725.92 860.15 1725.92C860.15 1725.92 806.51 1738.36 792.03 1828.82C788.46 1851.41 791.67 1878.18 799.69 1905.76C823.95 1988.76 891.69 2079.14 948.83 2085.16C1024.98 2093.26 1050.26 2046.39 1072.73 2015.16C1095.2 1983.93 1153.2 1819.75 1182.55 1778.09C1182.55 1778.09 1183.04 1780.58 1184.04 1785.04C1188.48 1804.74 1202.7 1862.94 1227.67 1916.94V1917C1247.2 1959.36 1273.47 1999.13 1306.67 2015.58C1391.95 2057.65 1456.13 1991.91 1459.97 1959.42C1463.81 1926.93 1456.87 1874.42 1456.87 1874.42C1456.87 1874.42 1635.26 1796.8 1664.49 1684.62C1670.69 1660.77 1671.49 1635.09 1668.99 1609.35C1659.54 1514.14 1603.79 1418.94 1603.79 1418.94C1603.79 1418.94 1611.79 1243.17 1580.98 1132.35C1580.98 1132.35 1582.16 1132.43 1584.4 1132.53C1585.8 1132.58 1587.6 1132.62 1589.8 1132.66C1589.97 1132.66 1590.2 1132.66 1590.36 1132.66C1622.36 1132.72 1730.55 1125.32 1829.78 1029.82C1841.82 1018.19 1853.17 1005.88 1863.78 992.94C1894.61 955.269 1922.26 915.109 1946.45 872.87C1946.45 872.81 1946.52 872.71 1946.53 872.65C1971.76 828.59 1992.19 783.65 2005.82 741.35C2032.13 659.62 2032.99 587.41 1993.33 549.35C1988.21 544.357 1982.57 539.929 1976.5 536.14C1903.1 490.91 1837.13 606.14 1837.13 606.14C1837.13 606.14 1813.36 539.03 1784.5 556.14C1755.64 573.25 1769.96 655.22 1788.25 679.94C1788.25 679.94 1738.79 764.35 1688.25 804.23C1637.71 844.11 1464.42 830.62 1464.42 830.62L957.01 885.76C957.01 885.76 816.34 964.85 755.91 1009.88C695.48 1054.91 577.16 1077.59 577.16 1077.59C577.16 1077.59 449.83 1015.27 417.9 1070.72C385.97 1126.17 447.23 1163.13 447.23 1163.13Z" fill="white"/>
<path d="M965.34 2100.09C959.327 2100.07 953.319 2099.74 947.34 2099.09C915.12 2095.68 879.21 2070.09 846.24 2027C806.37 1974.93 768.08 1890 778.24 1826.57C791.36 1744.44 835.5 1720.23 851.35 1714.09C862.76 1697.09 912.12 1615.82 898.9 1496.76C887.28 1392.12 890.6 1303.23 893.32 1262.2C794.52 1303.05 663.94 1304.2 591.75 1300.89C548.97 1298.89 507.96 1287.38 473.14 1267.47C459.099 1259.57 446.013 1250.07 434.14 1239.18C416.26 1222.53 408.46 1205.53 410.96 1188.64C412.57 1177.74 418.18 1169.26 424.14 1163.08C401.93 1142.68 381.14 1106.61 405.83 1063.79C440.68 1003.27 552.47 1050.62 578.99 1062.96C600.7 1058.37 696.86 1036.47 747.59 998.68C808.05 953.68 944.42 876.84 950.2 873.6C951.848 872.668 953.668 872.083 955.55 871.88L1463 816.77C1463.86 816.69 1464.73 816.69 1465.59 816.77C1512.28 820.38 1641.75 823.2 1679.65 793.31C1719.19 762.14 1759.01 700.88 1771.92 680.07C1758.92 655.54 1749.84 610.48 1756.36 578.4C1759.69 562.02 1766.8 550.5 1777.51 544.17C1781.61 541.633 1786.23 540.067 1791.03 539.592C1795.82 539.117 1800.66 539.746 1805.18 541.43C1820.18 546.86 1831.88 563.11 1839.7 577.56C1857.54 553.73 1890.27 518.22 1930.21 512.48C1956.21 508.76 1980.72 517.78 2003.14 539.32C2089.84 622.61 2003.99 844.32 1874.73 1001.94C1770.8 1128.69 1646.41 1145.26 1599.19 1146.66C1622.97 1249.41 1619.04 1389.35 1618.06 1415.58C1631.97 1440.38 1706.33 1580.23 1678.17 1688.27C1651.2 1791.56 1510.55 1864.68 1472 1883C1473.86 1900.38 1476.91 1935.94 1473.93 1961.14C1471.13 1984.88 1448.66 2012.59 1419.3 2028.53C1383.06 2048.21 1340.88 2048.09 1300.54 2028.21C1232.54 1994.7 1193.27 1876.52 1177.24 1816.37C1164.12 1843.37 1148.55 1880.63 1134.24 1914.83C1113.49 1964.52 1095.56 2007.44 1084.03 2023.43C1082.18 2025.99 1080.32 2028.65 1078.41 2031.43C1059 2059.19 1030.41 2100.08 965.34 2100.09ZM909.19 1225.57C911.153 1225.57 913.095 1225.98 914.888 1226.78C916.682 1227.58 918.288 1228.74 919.601 1230.2C920.915 1231.66 921.907 1233.38 922.513 1235.25C923.12 1237.11 923.326 1239.09 923.12 1241.04C923 1242.17 911.39 1355.52 926.73 1493.69C942.87 1639.08 874.2 1730.61 871.27 1734.44C869.282 1737.03 866.452 1738.84 863.27 1739.56C861.62 1739.99 818.43 1752.16 805.83 1831.01C798.39 1877.61 824.71 1952.89 868.43 2010.01C896.28 2046.39 926.1 2068.72 950.25 2071.27C1011.81 2077.82 1035 2044.61 1055.47 2015.33C1057.47 2012.49 1059.4 2009.71 1061.32 2007.05C1070.96 1993.68 1090 1948.05 1108.41 1904.05C1131.13 1849.66 1154.62 1793.41 1171.05 1770.11C1172.63 1767.87 1174.83 1766.14 1177.38 1765.14C1179.93 1764.14 1182.72 1763.9 1185.4 1764.47C1188.08 1765.04 1190.53 1766.38 1192.46 1768.33C1194.39 1770.28 1195.7 1772.75 1196.23 1775.44C1196.61 1777.32 1234.82 1964.6 1312.91 2003.1C1353.91 2023.3 1386.1 2014.7 1405.91 2003.94C1431.23 1990.19 1444.85 1968.32 1446.09 1957.87C1449.67 1927.57 1443.09 1876.87 1442.99 1876.38C1442.59 1873.36 1443.18 1870.3 1444.68 1867.65C1446.18 1865 1448.5 1862.91 1451.29 1861.7C1453.01 1860.95 1623.8 1785.44 1650.97 1681.21C1678.39 1576.03 1592.58 1427.6 1591.72 1426.11C1590.35 1423.78 1589.69 1421.1 1589.81 1418.4C1589.89 1416.66 1597.4 1243.53 1567.54 1136.19C1566.93 1134.01 1566.86 1131.72 1567.33 1129.51C1567.8 1127.3 1568.8 1125.24 1570.24 1123.5C1571.69 1121.76 1573.53 1120.39 1575.61 1119.52C1577.69 1118.65 1579.96 1118.29 1582.21 1118.48C1583.7 1118.6 1734.21 1128.97 1852.98 984.19C1915.41 908.04 1966.13 818.45 1992.13 738.39C2019.37 654.49 2016.36 590.96 1983.64 559.52C1967.55 544.07 1951.36 537.74 1934.14 540.21C1887.98 546.8 1849.67 612.6 1849.29 613.27C1847.96 615.596 1845.99 617.492 1843.61 618.73C1841.23 619.969 1838.55 620.499 1835.88 620.258C1833.21 620.017 1830.67 619.014 1828.55 617.37C1826.43 615.725 1824.83 613.507 1823.94 610.98C1818.5 595.74 1805.71 571.45 1795.53 567.77C1794.9 567.507 1794.21 567.416 1793.53 567.507C1792.85 567.599 1792.21 567.869 1791.67 568.29C1788.17 570.35 1785.34 575.93 1783.67 583.99C1777.83 612.7 1789.05 657.63 1799.46 671.75C1801.09 673.955 1802.03 676.588 1802.17 679.324C1802.32 682.059 1801.66 684.777 1800.27 687.14C1798.2 690.68 1748.88 774.29 1696.86 815.31C1644.65 856.48 1488.2 846.56 1464.6 844.8L961.33 899.47C942.26 910.26 818.87 980.47 764.21 1021.2C701.91 1067.62 584.69 1090.48 579.73 1091.43C576.754 1092 573.673 1091.59 570.95 1090.26C540.95 1075.62 450.68 1041.9 429.95 1077.83C405.15 1120.83 452.29 1149.93 454.31 1151.14C456.467 1152.44 458.234 1154.29 459.426 1156.51C460.617 1158.73 461.189 1161.23 461.08 1163.74C460.972 1166.25 460.187 1168.69 458.809 1170.8C457.431 1172.91 455.511 1174.6 453.25 1175.71C453.2 1175.71 439.94 1182.71 438.51 1192.89C437.24 1201.89 445.73 1211.89 453.08 1218.75C463.373 1228.17 474.714 1236.38 486.88 1243.22C517.88 1260.93 554.51 1271.22 592.88 1272.97C653.27 1275.73 804.35 1276.8 902.74 1227.11C904.735 1226.08 906.947 1225.56 909.19 1225.57Z" fill="#371B45"/>
<path d="M980.76 2099.24C977.28 2099.25 973.92 2097.97 971.335 2095.64C968.75 2093.31 967.124 2090.1 966.776 2086.64C966.428 2083.18 967.381 2079.71 969.451 2076.91C971.52 2074.12 974.557 2072.19 977.97 2071.51C995.59 2067.92 1006.97 2058.37 1012.83 2042.32C1031.35 1991.32 989.98 1883.98 940.63 1822C925.76 1803.34 907.18 1790 886.89 1783.44C865.62 1776.57 846.16 1777.25 832.1 1785.35C819.49 1792.62 811.1 1805.67 807.1 1824.16C806.712 1825.96 805.974 1827.66 804.927 1829.17C803.881 1830.69 802.546 1831.98 801.001 1832.97C799.455 1833.97 797.728 1834.65 795.919 1834.98C794.109 1835.31 792.253 1835.28 790.455 1834.89C788.657 1834.51 786.954 1833.77 785.441 1832.72C783.929 1831.68 782.637 1830.34 781.64 1828.8C780.644 1827.25 779.961 1825.52 779.631 1823.71C779.302 1821.9 779.332 1820.05 779.72 1818.25C785.36 1792.08 798.64 1772.31 818.12 1761.09C839.12 1748.97 866.62 1747.45 895.51 1756.79C921.07 1765.06 944.24 1781.57 962.51 1804.56C1010.44 1864.74 1063.73 1984.18 1039.12 2051.88C1029.94 2077.14 1010.72 2093.41 983.54 2098.95C982.625 2099.14 981.694 2099.23 980.76 2099.24Z" fill="#371B45"/>
<path d="M796.19 1865.62C792.857 1865.62 789.633 1864.44 787.097 1862.27C784.561 1860.11 782.879 1857.11 782.355 1853.82C781.831 1850.53 782.498 1847.16 784.236 1844.32C785.975 1841.47 788.671 1839.34 791.84 1838.31L928 1793.76C929.748 1793.19 931.592 1792.97 933.426 1793.11C935.26 1793.25 937.049 1793.75 938.689 1794.58C940.329 1795.42 941.79 1796.56 942.987 1797.96C944.183 1799.36 945.094 1800.98 945.665 1802.73C946.236 1804.47 946.457 1806.32 946.316 1808.15C946.175 1809.99 945.673 1811.77 944.841 1813.41C944.008 1815.05 942.861 1816.51 941.464 1817.71C940.067 1818.91 938.448 1819.82 936.7 1820.39L800.55 1864.93C799.142 1865.39 797.67 1865.62 796.19 1865.62Z" fill="#371B45"/>
<path d="M820.49 1938.3C817.181 1938.31 813.975 1937.15 811.442 1935.02C808.908 1932.89 807.21 1929.93 806.649 1926.67C806.088 1923.41 806.7 1920.06 808.377 1917.2C810.054 1914.35 812.688 1912.19 815.81 1911.09L971.08 1856.09C972.814 1855.48 974.651 1855.21 976.487 1855.31C978.324 1855.4 980.123 1855.86 981.783 1856.65C983.443 1857.44 984.931 1858.55 986.161 1859.92C987.392 1861.29 988.341 1862.88 988.955 1864.62C989.569 1866.35 989.836 1868.19 989.739 1870.02C989.643 1871.86 989.186 1873.66 988.395 1875.32C987.603 1876.98 986.492 1878.47 985.126 1879.7C983.759 1880.93 982.164 1881.88 980.43 1882.49L825.16 1937.49C823.661 1938.03 822.082 1938.3 820.49 1938.3Z" fill="#371B45"/>
<path d="M859.47 2014.12C856.256 2014.13 853.139 2013.02 850.641 2011C848.143 2008.98 846.416 2006.16 845.751 2003.02C845.086 1999.87 845.523 1996.6 846.989 1993.74C848.454 1990.88 850.86 1988.61 853.8 1987.31L1001.11 1922.12C1004.51 1920.62 1008.36 1920.52 1011.83 1921.86C1015.29 1923.2 1018.08 1925.86 1019.58 1929.25C1021.09 1932.65 1021.18 1936.51 1019.84 1939.97C1018.51 1943.44 1015.85 1946.23 1012.45 1947.73L865.13 2012.92C863.347 2013.71 861.42 2014.12 859.47 2014.12Z" fill="#371B45"/>
<path d="M908.53 2076.33C905.375 2076.34 902.311 2075.28 899.832 2073.33C897.354 2071.38 895.608 2068.65 894.876 2065.58C894.145 2062.51 894.471 2059.28 895.802 2056.42C897.133 2053.56 899.391 2051.24 902.21 2049.82C1014.68 1993.09 1015.41 1993.16 1020.97 1993.82C1024.19 1994.19 1027.17 1995.67 1029.43 1998C1031.68 2000.33 1033.05 2003.36 1033.31 2006.59C1033.58 2009.82 1032.71 2013.04 1030.87 2015.7C1029.02 2018.36 1026.31 2020.3 1023.2 2021.19C1014.7 2024.73 952.7 2055.72 914.82 2074.82C912.871 2075.81 910.716 2076.33 908.53 2076.33Z" fill="#371B45"/>
<path d="M855.41 1712.74C935.65 1680.74 1011.13 1756.2 1038.73 1825.41C1048.36 1848.21 1054.71 1872.26 1057.58 1896.85C1050.25 1873.79 1040.32 1851.65 1027.96 1830.85C994.96 1775.33 932.71 1720.85 864.9 1739.08C848.06 1743.7 839.52 1719.85 855.41 1712.73V1712.74Z" fill="#371B45"/>
<path d="M1146.43 1864.29C1143.78 1864.29 1141.18 1863.54 1138.94 1862.12C1136.7 1860.71 1134.91 1858.69 1133.77 1856.29C1130.33 1849.1 1050.09 1685.29 896.77 1733.64C893.227 1734.76 889.385 1734.42 886.09 1732.7C882.795 1730.99 880.316 1728.03 879.2 1724.49C878.083 1720.95 878.42 1717.1 880.136 1713.81C881.852 1710.51 884.807 1708.04 888.35 1706.92C1065.17 1651.22 1158.16 1842.36 1159.08 1844.29C1160.09 1846.42 1160.55 1848.78 1160.41 1851.13C1160.26 1853.49 1159.53 1855.77 1158.27 1857.77C1157 1859.77 1155.26 1861.41 1153.19 1862.55C1151.12 1863.69 1148.8 1864.29 1146.44 1864.29H1146.43Z" fill="#371B45"/>
<path d="M1431.62 1567.85C1424.67 1579.77 1412.85 1589.02 1401.52 1596.72C1377.73 1611.8 1350.35 1620.57 1322.71 1625C1268.21 1633.47 1211.71 1627 1159.21 1610.8C1146.21 1606.31 1133.39 1601.63 1120.88 1595.98C1170.98 1596.36 1220.6 1601.29 1270.73 1600.98C1299.54 1600.24 1329.48 1598.98 1357.81 1593.63C1383.57 1588.78 1409.03 1582.28 1431.62 1567.83V1567.85Z" fill="#371B45"/>
<path d="M1182.54 1792.14C1179.95 1792.14 1177.41 1791.42 1175.2 1790.07C1173 1788.71 1171.21 1786.76 1170.04 1784.45C1168.87 1782.14 1168.37 1779.55 1168.59 1776.97C1168.8 1774.39 1169.73 1771.92 1171.27 1769.83C1235.84 1682.14 1304.27 1604.15 1304.97 1603.37C1306.17 1601.93 1307.64 1600.74 1309.3 1599.87C1310.97 1599.01 1312.79 1598.49 1314.66 1598.34C1316.53 1598.19 1318.4 1598.42 1320.18 1599.01C1321.96 1599.61 1323.6 1600.55 1325.01 1601.79C1326.42 1603.03 1327.56 1604.54 1328.37 1606.23C1329.19 1607.92 1329.65 1609.75 1329.74 1611.63C1329.83 1613.5 1329.54 1615.37 1328.89 1617.13C1328.25 1618.89 1327.25 1620.5 1325.97 1621.87C1325.29 1622.64 1257.62 1699.76 1193.8 1786.44C1192.5 1788.21 1190.8 1789.64 1188.85 1790.63C1186.89 1791.62 1184.73 1792.14 1182.54 1792.14Z" fill="#371B45"/>
<path d="M1550 1835.57C1549.33 1835.57 1548.66 1835.53 1548 1835.43C1352.26 1807.43 1293.87 1628.85 1293.3 1627.06C1292.18 1623.52 1292.51 1619.68 1294.23 1616.38C1295.94 1613.08 1298.89 1610.6 1302.44 1609.49C1305.98 1608.37 1309.82 1608.7 1313.11 1610.41C1316.41 1612.13 1318.89 1615.08 1320.01 1618.62C1322.13 1625.29 1374.01 1782.25 1552.01 1807.7C1555.53 1808.18 1558.74 1809.99 1560.98 1812.75C1563.22 1815.51 1564.33 1819.02 1564.07 1822.57C1563.82 1826.12 1562.22 1829.44 1559.61 1831.85C1557 1834.27 1553.57 1835.6 1550.01 1835.57H1550Z" fill="#371B45"/>
<path d="M1319.51 1620.07C1338.51 1644.42 1362.01 1666.29 1387.11 1684.6C1406.4 1698.8 1427.4 1710.51 1449.62 1719.46C1455.87 1722.27 1465.93 1725.2 1472.46 1727.46C1468.28 1726.75 1458.46 1725 1454.46 1724.31C1450.84 1723.41 1440.46 1720.79 1436.67 1719.83C1384.93 1704.13 1337.59 1675.63 1298.27 1638.38C1284.52 1623.85 1307.04 1604.29 1319.49 1620.1L1319.51 1620.07Z" fill="#371B45"/>
<path d="M1459.19 1888.32C1413.3 1889.66 1364.29 1874.24 1334.3 1838.38C1343.3 1844.92 1352.37 1850.97 1362.51 1854.82C1391.51 1866.66 1424.51 1867.89 1454.71 1860.68C1475.24 1855.58 1480.32 1886.68 1459.19 1888.32Z" fill="#371B45"/>
<path d="M451 1149.6L505.07 1179.1L443.53 1176.59C441.643 1176.51 439.79 1176.07 438.076 1175.27C436.362 1174.48 434.821 1173.36 433.542 1171.97C432.262 1170.58 431.268 1168.96 430.618 1167.18C429.967 1165.41 429.672 1163.53 429.75 1161.64C429.91 1151.2 442.03 1144.44 451 1149.64V1149.6Z" fill="#371B45"/>
<path d="M782.65 1286.09C779.701 1286.09 776.828 1285.16 774.44 1283.43C658.04 1199.01 699.2 1037.32 701.01 1030.43C701.958 1026.84 704.294 1023.77 707.504 1021.9C710.713 1020.03 714.534 1019.52 718.125 1020.47C721.716 1021.41 724.783 1023.75 726.652 1026.96C728.521 1030.17 729.038 1033.99 728.09 1037.58C727.7 1039.07 690.14 1187.65 790.88 1260.7C793.278 1262.44 795.063 1264.89 795.981 1267.7C796.898 1270.52 796.9 1273.55 795.985 1276.36C795.071 1279.18 793.288 1281.63 790.892 1283.37C788.496 1285.11 785.61 1286.04 782.65 1286.04V1286.09Z" fill="#371B45"/>
<path d="M895.28 1237.93L926 1097.25L923.08 1241.25C921.76 1261.61 891.8 1258.1 895.26 1237.97L895.28 1237.93Z" fill="#371B45"/>
<path d="M1567.63 1136.24C1559.28 1092.53 1546.41 1049.8 1529.22 1008.75C1548.55 1036.77 1565.65 1066.26 1580.37 1096.95C1585.37 1107.31 1590.07 1117.49 1594.56 1128.55C1595.31 1130.38 1595.67 1132.36 1595.61 1134.34C1595.54 1136.32 1595.07 1138.26 1594.2 1140.05C1593.33 1141.83 1592.1 1143.41 1590.59 1144.69C1589.07 1145.96 1587.3 1146.9 1585.39 1147.44C1583.49 1147.99 1581.49 1148.12 1579.53 1147.84C1577.56 1147.56 1575.68 1146.87 1574.01 1145.81C1572.33 1144.76 1570.9 1143.36 1569.8 1141.71C1568.7 1140.06 1567.96 1138.19 1567.63 1136.24Z" fill="#371B45"/>
<path d="M1894.74 957.52C1792.3 957.52 1692.03 809.12 1687.74 802.64C1686.72 801.111 1686.01 799.395 1685.65 797.591C1685.29 795.788 1685.29 793.931 1685.65 792.127C1686.01 790.323 1686.72 788.608 1687.74 787.079C1688.76 785.55 1690.08 784.237 1691.6 783.215C1693.13 782.193 1694.85 781.483 1696.65 781.124C1698.46 780.765 1700.31 780.766 1702.12 781.125C1703.92 781.483 1705.64 782.194 1707.17 783.216C1708.7 784.238 1710.01 785.551 1711.03 787.08C1712.03 788.58 1811.83 936.28 1900.66 929.29C1902.49 929.147 1904.34 929.366 1906.08 929.936C1907.83 930.505 1909.45 931.413 1910.85 932.608C1912.25 933.803 1913.4 935.262 1914.23 936.901C1915.06 938.54 1915.57 940.327 1915.71 942.16C1915.85 943.993 1915.63 945.837 1915.06 947.585C1914.49 949.334 1913.59 950.953 1912.39 952.35C1911.2 953.748 1909.74 954.896 1908.1 955.73C1906.46 956.564 1904.67 957.067 1902.84 957.21C1900.12 957.42 1897.42 957.52 1894.74 957.52Z" fill="#371B45"/>
<path d="M1851 603.58L1857.59 637.36L1844.51 626.06C1849.52 626.938 1854.47 628.158 1859.32 629.71C1890.56 639.15 1922.51 659.86 1931.38 692.79C1926.58 685.1 1921.04 678.2 1914.15 672.95C1897.22 659.95 1875.92 654.7 1854.98 653.83C1850.91 653.656 1846.84 653.713 1842.78 654C1839.72 653.768 1836.83 652.538 1834.54 650.5C1832.25 648.463 1830.69 645.729 1830.1 642.72L1823.51 608.94C1820.44 590.74 1847.01 585.53 1851 603.58Z" fill="#371B45"/>
<path d="M906.15 1297.78C902.647 1297.79 899.265 1296.5 896.673 1294.14C894.081 1291.78 892.467 1288.54 892.149 1285.05C891.831 1281.56 892.833 1278.08 894.957 1275.29C897.08 1272.51 900.172 1270.62 903.62 1270L1024.13 1247.73C1025.94 1247.4 1027.8 1247.42 1029.6 1247.8C1031.39 1248.19 1033.1 1248.92 1034.62 1249.96C1036.13 1251.01 1037.43 1252.34 1038.43 1253.88C1039.43 1255.43 1040.12 1257.15 1040.45 1258.96C1040.78 1260.77 1040.76 1262.63 1040.38 1264.43C1039.99 1266.22 1039.26 1267.93 1038.21 1269.45C1037.17 1270.96 1035.84 1272.26 1034.3 1273.26C1032.75 1274.26 1031.03 1274.95 1029.22 1275.28L908.71 1297.55C907.865 1297.7 907.008 1297.78 906.15 1297.78Z" fill="#371B45"/>
<path d="M911.18 1397.65C907.701 1397.66 904.343 1396.38 901.759 1394.05C899.176 1391.72 897.553 1388.51 897.206 1385.05C896.859 1381.59 897.813 1378.12 899.882 1375.32C901.952 1372.53 904.988 1370.6 908.4 1369.92L1035.55 1344.06C1037.35 1343.69 1039.21 1343.68 1041.01 1344.03C1042.82 1344.39 1044.54 1345.09 1046.07 1346.1C1047.6 1347.12 1048.92 1348.42 1049.95 1349.95C1050.98 1351.47 1051.7 1353.18 1052.06 1354.99C1052.43 1356.79 1052.44 1358.64 1052.09 1360.45C1051.74 1362.25 1051.04 1363.97 1050.02 1365.51C1049.01 1367.04 1047.7 1368.36 1046.18 1369.39C1044.65 1370.41 1042.94 1371.13 1041.14 1371.5L914 1397.37C913.072 1397.56 912.127 1397.65 911.18 1397.65Z" fill="#371B45"/>
<path d="M1447.94 1225.93C1444.49 1225.94 1441.16 1224.67 1438.59 1222.38C1436.01 1220.08 1434.38 1216.92 1433.99 1213.49C1433.61 1210.06 1434.5 1206.61 1436.51 1203.8C1438.51 1201 1441.47 1199.03 1444.84 1198.27L1584.34 1166.49C1586.13 1166.08 1587.99 1166.03 1589.8 1166.34C1591.61 1166.65 1593.35 1167.31 1594.91 1168.29C1596.46 1169.27 1597.81 1170.55 1598.88 1172.05C1599.94 1173.55 1600.7 1175.24 1601.1 1177.03C1601.51 1178.83 1601.56 1180.68 1601.26 1182.5C1600.95 1184.31 1600.28 1186.04 1599.3 1187.6C1598.33 1189.16 1597.05 1190.51 1595.55 1191.57C1594.05 1192.63 1592.35 1193.39 1590.56 1193.8L1451.06 1225.58C1450.04 1225.81 1448.99 1225.93 1447.94 1225.93Z" fill="#371B45"/>
<path d="M1466.28 1327.49C1462.79 1327.5 1459.42 1326.21 1456.83 1323.88C1454.25 1321.54 1452.63 1318.31 1452.29 1314.84C1451.95 1311.37 1452.92 1307.89 1455.01 1305.1C1457.11 1302.31 1460.16 1300.4 1463.59 1299.74L1600.03 1272.84C1601.83 1272.48 1603.69 1272.49 1605.49 1272.85C1607.3 1273.21 1609.01 1273.93 1610.54 1274.95C1612.06 1275.98 1613.38 1277.29 1614.39 1278.82C1615.41 1280.35 1616.12 1282.07 1616.48 1283.87C1616.83 1285.68 1616.83 1287.54 1616.46 1289.34C1616.1 1291.14 1615.39 1292.86 1614.36 1294.38C1613.34 1295.91 1612.02 1297.22 1610.49 1298.24C1608.96 1299.26 1607.24 1299.96 1605.44 1300.32L1469 1327.22C1468.1 1327.4 1467.19 1327.49 1466.28 1327.49Z" fill="#371B45"/>
<path d="M1442 1179L1466.9 1316.87C1469.81 1332.87 1466.89 1349.38 1458.67 1363.41C1450.45 1377.44 1437.48 1388.06 1422.1 1393.35C1363.1 1413.56 1259.05 1442.16 1121.64 1451.64C1105.35 1452.74 1089.2 1447.94 1076.15 1438.12C1063.1 1428.3 1054.03 1414.1 1050.58 1398.14C1040.94 1353.74 1028.7 1290.24 1023.85 1234.69C1022.5 1219.07 1026.61 1203.47 1035.49 1190.56C1044.37 1177.64 1057.46 1168.21 1072.52 1163.88C1161.52 1138.64 1261.1 1130.99 1370.09 1123.18C1386.85 1121.98 1403.46 1127.01 1416.74 1137.31C1430.01 1147.62 1439.01 1162.46 1442 1179Z" fill="white"/>
<path d="M1117.06 1465.84C1098.34 1465.75 1080.21 1459.29 1065.64 1447.53C1051.08 1435.78 1040.94 1419.42 1036.9 1401.14C1027.31 1356.97 1014.85 1292.47 1009.9 1235.94C1008.25 1217.08 1013.21 1198.23 1023.93 1182.63C1034.66 1167.03 1050.48 1155.65 1068.68 1150.44C1161.45 1124.12 1267 1116.56 1369.08 1109.24C1389.29 1107.76 1409.34 1113.82 1425.34 1126.25C1441.35 1138.68 1452.19 1156.59 1455.77 1176.54L1480.67 1314.41C1484.28 1333.71 1480.8 1353.66 1470.88 1370.6C1460.96 1387.54 1445.26 1400.33 1426.67 1406.63C1363.3 1428.35 1259.11 1456.22 1122.67 1465.63C1120.76 1465.77 1118.9 1465.84 1117.06 1465.84ZM1375 1137C1373.7 1137 1372.38 1137 1371.06 1137.14C1270.4 1144.35 1166.31 1151.81 1076.31 1177.35C1064.37 1180.78 1054 1188.25 1046.97 1198.49C1039.93 1208.73 1036.69 1221.1 1037.78 1233.47C1042.58 1288.53 1054.78 1351.79 1064.23 1395.16C1067.02 1407.81 1074.24 1419.04 1084.59 1426.83C1094.93 1434.63 1107.72 1438.47 1120.65 1437.66C1254.09 1428.45 1355.74 1401.27 1417.52 1380.09C1429.77 1375.94 1440.11 1367.52 1446.64 1356.36C1453.18 1345.2 1455.47 1332.06 1453.09 1319.35L1428.19 1181.48C1425.95 1169 1419.4 1157.71 1409.68 1149.58C1399.95 1141.44 1387.68 1136.99 1375 1137Z" fill="#371B45"/>
<path d="M1257.4 1449.13C1254.16 1449.13 1251.01 1448 1248.51 1445.94C1246.01 1443.88 1244.3 1441.01 1243.67 1437.83L1224.45 1340.06C1222.44 1329.65 1223.37 1318.89 1227.14 1308.98C1230.91 1299.07 1237.37 1290.41 1245.79 1283.97L1290.11 1250.33C1294.21 1247.21 1297.4 1243.05 1299.34 1238.27C1301.27 1233.49 1301.89 1228.28 1301.11 1223.19L1287.05 1130.52C1286.49 1126.85 1287.42 1123.11 1289.62 1120.11C1291.82 1117.12 1295.12 1115.13 1298.79 1114.57C1302.47 1114.02 1306.21 1114.94 1309.2 1117.15C1312.19 1119.35 1314.18 1122.65 1314.74 1126.32L1328.8 1218.99C1330.33 1229.06 1329.12 1239.36 1325.29 1248.81C1321.46 1258.25 1315.15 1266.48 1307.03 1272.64L1262.72 1306.28C1258.46 1309.54 1255.19 1313.92 1253.28 1318.93C1251.38 1323.95 1250.9 1329.39 1251.92 1334.66L1271.14 1432.42C1271.86 1436.06 1271.1 1439.83 1269.04 1442.92C1266.98 1446 1263.78 1448.14 1260.14 1448.86C1259.24 1449.04 1258.32 1449.13 1257.4 1449.13Z" fill="#371B45"/>
<path d="M1158.5 1282.6C1175.93 1265.16 1175.93 1236.9 1158.5 1219.47C1141.06 1202.03 1112.8 1202.03 1095.37 1219.47C1077.93 1236.9 1077.93 1265.16 1095.37 1282.6C1112.8 1300.03 1141.06 1300.03 1158.5 1282.6Z" fill="#0096F0"/>
<path d="M1127 1306.66C1124.78 1306.66 1122.56 1306.53 1120.36 1306.27C1105.71 1304.54 1092.35 1297.06 1083.21 1285.47C1074.08 1273.89 1069.92 1259.15 1071.65 1244.5C1072.91 1233.86 1077.22 1223.81 1084.06 1215.55C1090.89 1207.3 1099.97 1201.2 1110.19 1197.98C1120.41 1194.77 1131.35 1194.57 1141.68 1197.42C1152.01 1200.27 1161.3 1206.05 1168.42 1214.05C1175.55 1222.06 1180.21 1231.95 1181.85 1242.54C1183.49 1253.13 1182.03 1263.97 1177.66 1273.75C1173.28 1283.53 1166.17 1291.84 1157.19 1297.68C1148.2 1303.52 1137.72 1306.64 1127 1306.66ZM1126.82 1217.38C1118.59 1217.4 1110.66 1220.43 1104.51 1225.9C1098.37 1231.38 1094.44 1238.91 1093.47 1247.08C1092.69 1253.69 1093.89 1260.38 1096.91 1266.3C1099.93 1272.23 1104.65 1277.12 1110.45 1280.37C1116.26 1283.62 1122.9 1285.08 1129.53 1284.55C1136.16 1284.03 1142.49 1281.55 1147.71 1277.43C1152.93 1273.31 1156.82 1267.74 1158.87 1261.41C1160.93 1255.08 1161.06 1248.29 1159.26 1241.89C1157.45 1235.48 1153.79 1229.76 1148.73 1225.44C1143.67 1221.12 1137.45 1218.39 1130.84 1217.61C1129.52 1217.46 1128.19 1217.38 1126.86 1217.38H1126.82Z" fill="#371B45"/>
<g opacity="0.25">
<path d="M1482.64 902.53C1332.98 1125.92 925.64 1118.83 877.91 931.75L942.97 910.34" fill="#371B45"/>
</g>
<path d="M1207.02 988.07C1475.89 988.07 1693.86 770.104 1693.86 501.23C1693.86 232.356 1475.89 14.39 1207.02 14.39C938.146 14.39 720.18 232.356 720.18 501.23C720.18 770.104 938.146 988.07 1207.02 988.07Z" fill="white"/>
<g opacity="0.25">
<path d="M723.57 444.07C692.01 711.07 882.87 953.13 1149.89 984.7C1292.96 1001.61 1428.89 954.62 1529.12 866.29C1450.14 900.717 1363.41 913.458 1277.86 903.2C1010.86 871.63 819.98 629.59 851.55 362.57C865.439 243.596 922.863 133.97 1012.76 54.8101C859.39 121.63 744.64 265.89 723.57 444.07Z" fill="#371B45"/>
</g>
<path d="M659.22 520.84C656.089 545.841 655.202 571.071 656.57 596.23C658.43 629.11 664.9 665.07 680.26 698.3C687.44 713.676 699.175 726.472 713.874 734.951C728.574 743.43 745.525 747.183 762.43 745.7L797.53 742.7L767 619.2L723.62 444.07L696 462.13C685.971 468.655 677.485 477.288 671.133 487.428C664.781 497.567 660.716 508.969 659.22 520.84Z" fill="white"/>
<path d="M731.64 606.69C784.94 36.12 1435.84 49.14 1624.29 369.24L1675.29 508.02L1642.22 574C1503.42 908.9 1015.11 999.71 767.45 710.64" fill="#371B45"/>
<path d="M731.65 606.68L767.42 710.58C1015.11 999.67 1503.42 908.88 1642.2 573.93L1675.32 508.02L1641.77 416.79C1570.33 631.21 1356.1 773.41 1122.85 745.79C959.41 726.47 824.52 628.34 751.7 493.79C741.764 530.769 735.055 568.541 731.65 606.68Z" fill="#121A27"/>
<path d="M1207.39 1002.11C1187.61 1002.11 1167.86 1000.94 1148.22 998.61C873.97 966.19 677.22 716.69 709.65 442.43C725.35 309.58 791.85 190.79 896.9 107.96C1001.95 25.13 1133 -11.86 1265.82 3.85999C1540.08 36.28 1736.82 285.78 1704.4 560.03C1674.33 814.4 1457.49 1002.11 1207.39 1002.11ZM1206.08 28.33C1100.42 28.33 998.49 63.52 914.25 129.95C815.07 208.15 752.25 320.3 737.46 445.72C722.67 571.14 757.53 694.84 835.74 794.01C913.95 893.18 1026.08 956.01 1151.51 970.8C1170.05 972.991 1188.7 974.093 1207.37 974.1C1443.51 974.1 1648.19 796.91 1676.59 556.75C1707.2 297.83 1521.45 62.28 1262.54 31.67C1243.8 29.4509 1224.95 28.3357 1206.08 28.33Z" fill="#371B45"/>
<path d="M1621.91 380.86C1620.96 388.93 1620.37 397.28 1619.97 405.86C1615.97 494.78 1639.87 607.29 1674.62 621.35C1688.63 627.113 1704.15 628.08 1718.77 624.1C1739.2 618.7 1755.27 602.81 1762.09 582.81C1776.36 540.81 1777.8 499.81 1773.32 463.76C1767.67 418.61 1752.74 381.22 1742.18 359.25C1732.46 338.98 1712.99 324.54 1690.62 322.7C1688.72 322.53 1686.8 322.48 1684.88 322.43C1652.27 322.5 1625.61 348.45 1621.91 380.86Z" fill="white"/>
<path d="M1700.58 640.6C1689.87 640.571 1679.28 638.469 1669.37 634.41C1620.05 614.49 1598.14 465.91 1608 379.28C1612.6 338.93 1645.61 308.52 1684.81 308.52H1684.88C1687.17 308.52 1689.47 308.62 1691.76 308.81C1718.5 311 1742.65 328.03 1754.76 353.23C1776.68 398.8 1808.51 489.82 1775.31 587.41C1766.83 612.34 1747.03 631.14 1722.31 637.69C1715.22 639.599 1707.92 640.577 1700.58 640.6ZM1684.81 336.53C1659.86 336.53 1638.81 356.26 1635.81 382.45C1625.08 476.65 1652.9 597.56 1679.81 608.45C1691.02 613.07 1703.44 613.841 1715.13 610.64C1730.5 606.56 1743.39 594.21 1748.76 578.41C1778.76 490.25 1749.56 407.11 1729.49 365.41C1721.65 349.12 1706.29 338.14 1689.41 336.75C1687.88 336.568 1686.35 336.495 1684.81 336.53Z" fill="#371B45"/>
<path d="M1744.71 613.77C1732.06 613.77 1720.15 607.77 1710.2 596.01C1668.53 547.01 1660.98 390.3 1689.1 339.51C1700.1 319.62 1714.57 318.51 1722.2 319.64C1724.04 319.879 1725.81 320.481 1727.42 321.412C1729.02 322.343 1730.43 323.583 1731.55 325.061C1732.67 326.539 1733.49 328.225 1733.95 330.021C1734.41 331.817 1734.52 333.687 1734.25 335.523C1733.99 337.359 1733.36 339.125 1732.41 340.716C1731.45 342.308 1730.19 343.694 1728.7 344.794C1727.21 345.895 1725.51 346.687 1723.71 347.126C1721.9 347.565 1720.03 347.641 1718.2 347.35H1718.13C1713.6 349.01 1702.66 370.12 1700.72 421.95C1698.99 468.13 1705.19 517.14 1716.88 549.86C1723.64 568.76 1734.88 590.15 1750.01 584.76C1753.51 583.51 1757.36 583.699 1760.71 585.288C1764.07 586.876 1766.66 589.733 1767.91 593.23C1769.16 596.727 1768.97 600.577 1767.38 603.934C1765.79 607.291 1762.94 609.88 1759.44 611.13C1754.72 612.852 1749.74 613.746 1744.71 613.77Z" fill="#371B45"/>
<g opacity="0.25">
<path d="M1620 405.93C1616 494.85 1639.9 607.36 1674.65 621.42C1688.66 627.183 1704.18 628.15 1718.8 624.17C1739.23 618.77 1755.3 602.88 1762.12 582.88C1776.39 540.88 1777.83 499.88 1773.35 463.83C1725.09 543.41 1673.75 518.1 1620 405.93Z" fill="#371B45"/>
</g>
<path d="M720.28 525.15C719.272 525.152 718.266 525.048 717.28 524.84C715.483 524.452 713.779 523.714 712.268 522.668C710.756 521.621 709.465 520.287 708.468 518.742C707.472 517.197 706.79 515.471 706.461 513.662C706.131 511.853 706.162 509.997 706.55 508.2C737.16 366.27 799.02 256.32 890.4 181.37C969.27 116.71 1068.09 81 1176.18 78C1391.55 72 1595.25 195.53 1640.1 359.08C1641.04 362.646 1640.53 366.437 1638.69 369.631C1636.85 372.825 1633.82 375.164 1630.26 376.14C1626.71 377.115 1622.91 376.649 1619.7 374.843C1616.49 373.036 1614.11 370.035 1613.1 366.49C1593.1 293.37 1536.78 226.22 1454.64 177.4C1372.64 128.68 1274.02 103.3 1176.98 106C1069.61 109 811.51 154.65 733.98 514.12C733.301 517.247 731.571 520.048 729.078 522.055C726.585 524.062 723.48 525.154 720.28 525.15Z" fill="#371B45"/>
<g opacity="0.52">
<path d="M898.14 696.85C756.67 549.11 874.9 350.42 1061.94 280.08C1073.42 275.76 1082.47 290.51 1073.64 299.08C964.55 404.99 911.72 534.45 917.74 688.55C917.829 690.859 917.213 693.14 915.975 695.09C914.736 697.04 912.933 698.567 910.806 699.468C908.678 700.369 906.327 700.601 904.065 700.133C901.802 699.666 899.736 698.52 898.14 696.85Z" fill="white"/>
</g>
<g opacity="0.52">
<path d="M1514.35 425.856C1516.73 405.716 1505.14 387.791 1488.46 385.82C1471.78 383.849 1456.33 398.578 1453.95 418.718C1451.57 438.857 1463.16 456.782 1479.84 458.753C1496.52 460.724 1511.97 445.995 1514.35 425.856Z" fill="white"/>
</g>
<g opacity="0.52">
<path d="M1486.28 506.54L1481.43 505.26C1477.57 504.245 1473.54 504.002 1469.59 504.543C1465.63 505.084 1461.82 506.399 1458.38 508.414C1454.93 510.428 1451.91 513.102 1449.5 516.282C1447.09 519.463 1445.32 523.088 1444.31 526.95C1438.59 548.65 1428.63 577.78 1412.89 598.67C1408.32 604.809 1406.24 612.453 1407.08 620.062C1407.92 627.67 1411.62 634.677 1417.42 639.67C1422.2 643.828 1428.15 646.387 1434.46 646.987C1440.76 647.588 1447.09 646.201 1452.57 643.02C1483.92 624.65 1505.11 592.85 1508.9 538.02C1509.37 530.963 1507.37 523.963 1503.24 518.219C1499.11 512.476 1493.12 508.347 1486.28 506.54Z" fill="white"/>
</g>
<path d="M755.34 760C736.913 760.017 718.863 754.775 703.312 744.889C687.761 735.002 675.354 720.883 667.55 704.19C638.16 640.6 639.23 568.46 645.3 519.19C647.031 505.293 651.776 491.941 659.203 480.068C666.631 468.195 676.561 458.087 688.3 450.45L715.84 432.45C717.379 431.443 719.1 430.748 720.907 430.407C722.714 430.065 724.57 430.082 726.37 430.458C728.17 430.833 729.879 431.56 731.398 432.596C732.918 433.632 734.218 434.957 735.225 436.495C736.232 438.033 736.927 439.755 737.269 441.562C737.61 443.369 737.593 445.225 737.217 447.025C736.842 448.825 736.115 450.534 735.079 452.053C734.044 453.572 732.719 454.873 731.18 455.88L703.64 473.88C695.303 479.287 688.247 486.449 682.965 494.865C677.683 503.282 674.303 512.751 673.06 522.61C668.45 560.03 664.91 631.85 692.94 692.49C698.924 705.241 708.678 715.847 720.883 722.875C733.089 729.904 747.159 733.016 761.19 731.79L796.27 728.79C798.102 728.633 799.947 728.838 801.699 729.395C803.452 729.951 805.078 730.846 806.484 732.031C807.891 733.215 809.05 734.665 809.896 736.297C810.742 737.93 811.258 739.713 811.415 741.545C811.572 743.377 811.367 745.222 810.811 746.974C810.255 748.727 809.359 750.353 808.174 751.759C806.99 753.165 805.54 754.325 803.908 755.171C802.275 756.017 800.492 756.533 798.66 756.69L763.58 759.69C760.85 759.87 758.08 760 755.34 760Z" fill="#371B45"/>
<g opacity="0.25">
<path d="M656.57 596.23C658.43 629.11 664.9 665.07 680.26 698.3C687.44 713.676 699.175 726.471 713.874 734.951C728.573 743.43 745.525 747.183 762.43 745.7L797.53 742.7L753.11 627.46L741.67 604.95C741.67 604.95 697.44 613.07 656.57 596.23Z" fill="#371B45"/>
</g>
<g opacity="0.25">
<path d="M1537.92 1025.1L1584.5 1132.59L1584.59 1132.82C1584.59 1132.82 1586.44 1132.82 1589.9 1132.72C1590.07 1132.72 1590.3 1132.72 1590.46 1132.72C1616.69 1131.72 1726.37 1122.05 1829.88 1029.88C1871.74 992.63 1912.59 941.96 1946.53 872.88C1946.53 872.82 1946.6 872.72 1946.61 872.66C1970.68 823.66 1990.16 780.06 2005.9 741.36C2032.21 659.63 2033.07 587.42 1993.41 549.36C1988.29 544.367 1982.65 539.939 1976.58 536.15C1968.4 594.39 1897.43 1011.48 1537.92 1025.1Z" fill="#371B45"/>
</g>
<g opacity="0.25">
<path d="M431.55 1176C422.69 1187.08 418.02 1205.09 443.69 1228.94C454.768 1239.12 466.986 1247.99 480.1 1255.36C514.29 1274.91 553.01 1285.13 592.4 1286.96C655.12 1289.81 784.11 1289.89 881.87 1251.69C898.63 1237.32 910.67 1227.06 910.67 1227.06L924.51 1109.96C924.51 1109.96 739.74 1245.38 562.37 1211.27C483.66 1196.14 447.49 1184.37 431.55 1176Z" fill="#371B45"/>
</g>
<path d="M421.63 1161.68C422.92 1160.76 423.63 1160.33 423.63 1160.33C422.898 1160.67 422.223 1161.13 421.63 1161.68Z" fill="#371B45"/>
<g opacity="0.25">
<path d="M919.47 1313.64C919.47 1313.64 959.72 1342.47 1026.71 1315.04L1025.71 1269.79C1025.71 1269.79 1142.12 1492.01 1462.89 1303.49L1475.21 1314.49L1560.76 1294.82L1598.67 1321.04L1471.87 1353.52C1471.87 1353.52 1480.87 1417.99 1412.72 1453.44C1344.57 1488.89 1132.55 1525.2 1073.83 1504.97C1015.11 1484.74 1013.62 1433.78 1013.62 1433.78L911.72 1428.01L911.32 1352.82" fill="#371B45"/>
</g>
<g opacity="0.25">
<path d="M1395.93 1591.85L1470.66 1553.77C1470.66 1553.77 1439.07 1696.77 1297.8 1762.15C1156.53 1827.53 1249.4 1957.57 1249.4 1957.57L1185.32 1790.64L1301.68 1617.36L1357.11 1607.69" fill="#371B45"/>
</g>
<g opacity="0.25">
<path d="M1227.72 1917C1247.25 1959.36 1273.52 1999.13 1306.72 2015.58C1392 2057.65 1456.18 1991.91 1460.02 1959.42C1463.86 1926.93 1456.92 1874.42 1456.92 1874.42C1456.92 1874.42 1635.31 1796.8 1664.54 1684.62C1670.74 1660.77 1671.54 1635.09 1669.04 1609.35L1666.52 1608.26C1666.52 1608.26 1584.08 1793.12 1352.09 1852.72C1352.09 1852.72 1437.4 1909.72 1400.55 1956.15C1364.15 2002.1 1230.77 1918.93 1227.72 1917Z" fill="#371B45"/>
</g>
<g opacity="0.25">
<path d="M799.69 1905.76C823.95 1988.76 891.69 2079.14 948.83 2085.16C1024.98 2093.26 1050.26 2046.39 1072.73 2015.16C1095.2 1983.93 1153.2 1819.75 1182.55 1778.09C1182.55 1778.09 1183.04 1780.58 1184.04 1785.04C1187.87 1774.15 1190.04 1767.93 1190.04 1767.93L1303.37 1614.7L1220 1616.13L1150.43 1604.35C1150.43 1604.35 1143.43 1757.57 1035.84 1833.18C1035.84 1833.18 1073.61 1975.05 1005.25 1905.32L980.04 1855.24C980.04 1855.24 942.45 2060.89 799.69 1905.76Z" fill="#371B45"/>
</g>
</svg>
